<?xml version="1.0" standalone="no"?>
<!DOCTYPE svg PUBLIC "-//W3C//DTD SVG 20010904//EN"
 "http://www.w3.org/TR/2001/REC-SVG-20010904/DTD/svg10.dtd">
<svg version="1.0" xmlns="http://www.w3.org/2000/svg"
 width="675.000000pt" height="450.000000pt" viewBox="0 0 675.000000 450.000000"
 preserveAspectRatio="xMidYMid meet">

<g transform="translate(0.000000,450.000000) scale(0.100000,-0.100000)"
fill="#000000" stroke="none">
<path d="M3155 4073 c-111 -23 -190 -66 -270 -147 -129 -130 -195 -314 -195
-545 0 -75 6 -150 15 -186 8 -33 14 -66 15 -72 0 -10 -92 -13 -412 -15 l-413
-3 -3 -122 -3 -122 -37 -12 c-102 -33 -121 -48 -156 -123 -18 -39 -39 -93 -46
-121 -7 -27 -23 -70 -35 -95 -56 -112 -55 -158 6 -216 16 -15 29 -34 29 -42 0
-9 11 -30 25 -48 16 -21 25 -46 25 -71 0 -21 6 -45 13 -54 17 -23 106 -76 141
-85 44 -11 25 10 -40 43 -30 15 -65 38 -76 51 -21 21 -21 26 -10 80 14 67 57
133 92 143 45 12 213 9 238 -5 21 -11 22 -14 7 -26 -8 -7 -52 -20 -97 -29 -64
-13 -85 -22 -99 -41 -29 -39 -50 -98 -39 -105 6 -3 13 2 17 12 3 10 13 34 22
53 15 33 16 14 21 -345 4 -294 8 -380 18 -381 6 -1 76 -2 155 -3 l143 -1 13
-262 c7 -152 17 -267 23 -273 7 -7 9 28 5 113 -3 80 -2 122 5 122 13 0 97 -61
125 -92 11 -12 28 -52 37 -87 9 -36 18 -67 21 -69 7 -7 -88 -142 -163 -233
-189 -230 -349 -263 -440 -92 -72 137 -79 381 -23 878 36 326 54 525 46 533
-12 13 -17 -15 -31 -175 -8 -92 -26 -267 -40 -388 -34 -288 -42 -577 -21 -700
42 -236 162 -329 324 -249 73 35 195 158 287 288 l70 98 12 -36 c26 -74 37
-236 30 -446 -3 -113 -9 -217 -12 -232 -5 -21 -2 -28 8 -28 20 0 28 104 28
356 0 211 -13 311 -55 434 -38 109 -44 235 -16 365 12 55 25 117 28 138 l6 37
842 0 c667 0 842 -3 842 -12 0 -7 10 -56 23 -108 18 -73 24 -123 24 -215 0
-108 -3 -130 -32 -215 -44 -132 -52 -203 -51 -445 1 -236 9 -343 24 -335 6 3
9 12 7 20 -1 8 -5 116 -8 240 -6 222 2 354 27 445 11 38 12 39 26 20 207 -290
330 -397 454 -397 96 1 158 66 202 214 20 66 22 94 22 303 -1 189 -6 266 -28
435 -23 179 -43 354 -62 551 l-6 55 52 24 c71 34 103 73 96 122 -4 26 -1 40 9
46 7 4 24 26 36 48 13 23 36 58 52 78 36 46 37 96 0 167 -14 29 -35 84 -46
123 -22 82 -63 169 -90 193 -11 10 -45 27 -76 39 l-57 21 -5 124 -5 124 -409
3 -408 2 6 33 c40 195 46 351 21 472 -37 173 -155 314 -302 359 -48 15 -21
-14 42 -45 113 -55 195 -160 231 -294 32 -118 25 -333 -16 -486 l-11 -39 -59
0 c-51 0 -59 3 -62 20 -4 25 -24 22 -21 -2 3 -17 -13 -18 -212 -18 l-215 0 0
53 c0 28 -5 59 -10 67 -12 18 -13 11 -10 -62 l2 -58 -227 0 -226 0 7 23 c10
32 10 42 -1 45 -5 2 -14 -13 -19 -32 -9 -34 -12 -36 -52 -36 -41 0 -44 2 -54
38 -37 132 -37 338 0 467 85 297 283 455 555 443 71 -3 102 -10 150 -31 33
-16 67 -35 77 -44 25 -22 36 -8 13 17 -29 32 -114 68 -185 80 -83 13 -109 12
-195 -7z m1570 -1097 l0 -110 -61 3 c-46 2 -65 -2 -78 -14 -38 -38 -9 -75 89
-116 53 -22 55 -24 55 -61 0 -33 -3 -38 -27 -43 -136 -28 -203 -60 -203 -98 0
-26 27 -50 66 -56 l39 -7 -47 -21 c-53 -24 -69 -54 -43 -83 9 -10 31 -20 49
-22 l31 -3 -33 -18 c-25 -13 -32 -24 -30 -40 3 -22 49 -41 153 -63 l40 -9 3
-371 2 -372 -42 -5 c-24 -2 -656 -5 -1404 -6 -1192 -1 -1362 0 -1367 13 -3 8
-6 177 -7 375 0 348 0 360 19 371 11 5 28 10 39 10 35 0 120 30 126 45 9 23
-4 45 -30 51 -32 8 -31 24 1 24 14 0 34 9 44 19 30 30 16 60 -38 84 l-46 21
38 6 c51 9 62 22 58 72 -1 24 -71 57 -150 72 l-66 12 -3 41 -3 40 56 23 c98
40 124 72 88 112 -12 13 -31 18 -73 18 l-58 0 -1 100 c-1 55 1 104 3 109 3 5
637 8 1408 7 l1403 -1 0 -109z m-2695 -141 c18 -22 4 -34 -96 -81 -81 -37 -95
-48 -108 -79 -14 -32 -19 -35 -54 -35 -24 0 -49 -8 -65 -20 -14 -11 -28 -20
-30 -20 -17 0 48 152 76 178 30 28 162 71 218 72 29 0 51 -6 59 -15z m2749
-12 c64 -21 88 -34 106 -58 22 -30 77 -157 70 -163 -2 -2 -16 6 -32 18 -16 11
-46 22 -68 23 -37 3 -47 11 -58 48 -3 9 -49 37 -101 62 -53 26 -99 54 -103 63
-16 42 69 45 186 7z m-2899 -153 c0 -23 -4 -30 -20 -30 -23 0 -23 0 -10 34 13
35 30 33 30 -4z m2899 8 c10 -27 6 -38 -15 -38 -9 0 -14 11 -14 30 0 35 17 40
29 8z m-2769 -83 c62 -19 90 -40 90 -65 0 -26 -20 -30 -143 -30 -62 0 -130 -5
-152 -10 -48 -11 -93 -59 -131 -138 -22 -47 -27 -52 -41 -40 -9 7 -22 27 -29
45 -12 27 -11 38 2 74 21 60 57 120 96 158 l33 33 110 -5 c61 -3 135 -13 165
-22z m2913 -5 c43 -37 107 -157 107 -200 0 -30 -33 -90 -48 -90 -4 0 -18 25
-31 55 -32 75 -87 130 -137 138 -21 4 -89 7 -150 7 -116 0 -153 11 -141 43 15
39 150 75 284 76 78 1 84 -1 116 -29z m-2879 -150 c48 -18 57 -25 54 -43 -3
-21 -10 -22 -113 -28 -78 -5 -124 -13 -156 -27 -50 -22 -93 -69 -104 -114 -4
-16 -9 -28 -12 -28 -13 0 -42 48 -43 70 0 37 42 120 84 164 l36 39 98 -6 c63
-4 119 -14 156 -27z m2827 -2 c33 -33 89 -140 89 -169 0 -9 -10 -28 -21 -43
l-22 -27 -19 43 c-11 24 -29 53 -41 66 -32 34 -135 62 -232 62 -64 0 -86 4
-96 16 -11 14 -10 19 9 35 13 10 46 22 75 28 29 5 61 12 72 14 11 3 50 5 87 6
62 1 68 -1 99 -31z m-37 -137 c24 -20 54 -81 66 -136 14 -62 -1 -85 -80 -125
l-60 -30 5 -88 c5 -78 26 -259 71 -627 24 -196 29 -454 11 -564 -50 -300 -214
-356 -424 -144 -39 39 -107 121 -151 182 l-79 110 19 73 c16 63 26 79 67 118
46 44 97 78 105 69 2 -2 0 -55 -3 -117 -3 -63 -3 -116 2 -119 13 -8 16 17 29
280 l13 259 160 1 160 2 5 370 c5 336 6 366 19 328 8 -24 18 -43 23 -43 15 0
9 35 -14 80 -25 48 -29 50 -162 81 -65 15 -81 33 -44 49 36 15 241 8 262 -9z
m-2402 -953 c-13 -51 -26 -137 -29 -190 l-6 -97 -46 38 c-25 21 -60 46 -77 54
-30 16 -31 18 -37 108 -4 51 -7 112 -7 136 l0 43 113 0 113 0 -24 -92z m1968
55 c0 -21 -3 -81 -6 -134 l-7 -95 -39 -23 c-22 -12 -57 -38 -77 -57 l-38 -34
-6 98 c-4 53 -17 139 -31 190 l-24 92 114 0 114 0 0 -37z"/>
<path d="M2517 2656 c-95 -26 -180 -112 -209 -209 -16 -55 -16 -211 -1 -263
32 -104 119 -184 221 -204 46 -9 304 -81 348 -97 7 -2 17 10 23 28 15 44 14
49 -9 49 -33 0 -170 33 -170 40 0 5 10 10 23 14 32 8 103 81 127 132 33 68 46
165 32 246 -36 207 -194 315 -385 264z m195 -92 c53 -37 86 -101 100 -192 28
-177 -71 -332 -211 -332 -121 1 -204 94 -218 244 -13 144 52 274 155 307 52
16 129 5 174 -27z"/>
<path d="M3020 2448 c0 -116 5 -240 11 -274 21 -123 91 -191 209 -201 116 -11
209 39 254 137 19 41 21 66 24 298 l4 252 -40 0 c-33 0 -41 -4 -46 -22 -3 -13
-6 -122 -6 -243 0 -209 -1 -223 -22 -265 -61 -119 -214 -122 -273 -5 -18 36
-20 64 -23 288 l-3 247 -44 0 -45 0 0 -212z"/>
<path d="M3670 2320 l0 -340 45 0 45 0 0 340 0 340 -45 0 -45 0 0 -340z"/>
<path d="M3900 2625 l0 -35 171 0 c148 0 170 -2 165 -15 -3 -8 -87 -134 -186
-280 -116 -170 -180 -274 -180 -290 l0 -25 245 0 245 0 0 35 0 35 -186 0
c-157 0 -185 2 -181 14 3 8 87 134 186 279 121 177 181 273 181 291 l0 26
-230 0 -230 0 0 -35z"/>
<path d="M3520 3874 c0 -14 -7 -41 -16 -60 -18 -37 -13 -54 10 -35 17 14 41
96 31 110 -11 20 -25 12 -25 -15z"/>
<path d="M3426 3772 c-36 -72 -105 -158 -199 -249 -75 -73 -89 -83 -121 -83
-43 0 -106 -24 -106 -41 0 -7 8 -9 23 -4 12 3 33 9 47 11 l25 5 -23 -18 c-61
-46 -152 -96 -204 -110 -63 -18 -76 -33 -28 -33 37 0 152 56 238 116 36 25 74
44 89 44 20 0 24 3 16 11 -9 9 8 31 66 88 105 103 221 261 221 301 0 25 -22 6
-44 -38z"/>
<path d="M3490 3720 c0 -6 11 -15 24 -20 38 -14 95 -69 117 -112 11 -22 34
-97 50 -168 16 -70 36 -144 44 -163 15 -37 58 -77 81 -77 22 0 16 19 -10 31
-37 17 -62 74 -91 211 -33 149 -71 229 -131 270 -46 31 -84 44 -84 28z"/>
<path d="M3458 3433 c-10 -2 -18 -9 -18 -14 0 -5 23 -7 54 -3 32 4 68 2 90 -6
47 -15 58 -7 17 14 -28 15 -103 20 -143 9z"/>
<path d="M3070 3219 c-17 -31 2 -69 35 -69 31 0 55 42 38 68 -16 27 -60 27
-73 1z"/>
<path d="M3504 3213 c-9 -33 7 -58 36 -58 29 0 45 25 36 58 -5 22 -12 27 -36
27 -24 0 -31 -5 -36 -27z"/>
</g>
</svg>
